<svg width="48" height="48" viewBox="0 0 48 48" fill="none" version="1.1" xmlns="http://www.w3.org/2000/svg">
  <path d="M28.75 7H31.25V5.25C31.25 4.91848 31.1183 4.60054 30.8839 4.36612C30.6495 4.1317 30.3315 4 30 4C29.6685 4 29.3505 4.1317 29.1161 4.36612C28.8817 4.60054 28.75 4.91848 28.75 5.25V7Z" fill="white"/>
  <path d="M19.25 7V5.25C19.25 4.91848 19.1183 4.60054 18.8839 4.36612C18.6495 4.1317 18.3315 4 18 4C17.6685 4 17.3505 4.1317 17.1161 4.36612C16.8817 4.60054 16.75 4.91848 16.75 5.25V7H18.25H19.25Z" fill="white"/>
  <path d="M31.5 15.5C31.5 16.163 30.2366 15.7989 29.7678 16.2678C29.2989 16.7366 29.663 18 29 18C28.337 18 28.7011 16.7366 28.2322 16.2678C27.7634 15.7989 26.5 16.163 26.5 15.5C26.5 14.837 27.7634 15.2011 28.2322 14.7322C28.7011 14.2634 28.337 13 29 13C29.663 13 29.2989 14.2634 29.7678 14.7322C30.2366 15.2011 31.5 14.837 31.5 15.5ZM19 18C19.663 18 19.2989 16.7366 19.7678 16.2678C20.2366 15.7989 21.5 16.163 21.5 15.5C21.5 14.837 20.2366 15.2011 19.7678 14.7322C19.2989 14.2634 19.663 13 19 13C18.337 13 18.7011 14.2634 18.2322 14.7322C17.7634 15.2011 16.5 14.837 16.5 15.5C16.5 16.163 17.7634 15.7989 18.2322 16.2678C18.7011 16.7366 18.337 18 19 18Z" fill="white"/>
  <path d="M29.7678 16.2678C30.2366 15.7989 31.5 16.163 31.5 15.5C31.5 14.837 30.2366 15.2011 29.7678 14.7322C29.2989 14.2634 29.663 13 29 13C28.337 13 28.7011 14.2634 28.2322 14.7322C27.7634 15.2011 26.5 14.837 26.5 15.5C26.5 16.163 27.7634 15.7989 28.2322 16.2678C28.7011 16.7366 28.337 18 29 18C29.663 18 29.2989 16.7366 29.7678 16.2678Z" fill="white"/>
  <path d="M19.7678 16.2678C19.2989 16.7366 19.663 18 19 18C18.337 18 18.7011 16.7366 18.2322 16.2678C17.7634 15.7989 16.5 16.163 16.5 15.5C16.5 14.837 17.7634 15.2011 18.2322 14.7322C18.7011 14.2634 18.337 13 19 13C19.663 13 19.2989 14.2634 19.7678 14.7322C20.2366 15.2011 21.5 14.837 21.5 15.5C21.5 16.163 20.2366 15.7989 19.7678 16.2678Z" fill="white"/>
  <path d="M29.4678 7.85254C29.8555 7.71572 30.2778 7.71025 30.6689 7.83691L30.8623 7.91113L34.208 9.41895C34.8801 9.7219 35.3123 10.3907 35.3125 11.1279V19.9502C35.3125 20.6778 34.8914 21.3399 34.2324 21.6484L31.1846 23.0752C30.673 23.3145 30.0806 23.3107 29.5723 23.0645L26.4873 21.5693C25.8409 21.2561 25.4299 20.6011 25.4297 19.8828V19.7168L24.8164 20.0137C24.3004 20.2634 23.6986 20.2635 23.1826 20.0137L22.5703 19.7168V19.8818C22.5703 20.6004 22.1593 21.256 21.5127 21.5693L18.4268 23.0645C17.9184 23.3106 17.326 23.3147 16.8145 23.0752L13.7676 21.6484C13.1086 21.3399 12.6875 20.6778 12.6875 19.9502V11.1279C12.6877 10.3907 13.1199 9.7219 13.792 9.41895L17.1377 7.91113L17.3311 7.83691C17.7222 7.71025 18.1445 7.71572 18.5322 7.85254L18.7227 7.93164L23.999 10.4756L29.2773 7.93164L29.4678 7.85254Z" stroke="white" stroke-width="2.625"/>
  <path d="M13.5 32.25C13.5 31.284 14.284 30.5 15.25 30.5H32.75C33.717 30.5 34.5 31.284 34.5 32.25V33.3C34.5 35.546 34.444 38.537 32.262 40.015C30.042 41.518 28.627 41.5 24 41.5C19.373 41.5 17.957 41.518 15.738 40.015C13.556 38.537 13.5 35.546 13.5 33.3V32.25ZM15.25 28C14.1228 28 13.0418 28.4478 12.2448 29.2448C11.4478 30.0418 11 31.1228 11 32.25V33.3C11 36.454 11.535 40.188 14.336 42.085C17.1 43.957 19.06 44 24 44C28.94 44 30.9 43.957 33.664 42.085C36.465 40.188 37 36.454 37 33.3V32.25C37 31.1228 36.5522 30.0418 35.7552 29.2448C34.9582 28.4478 33.8772 28 32.75 28H15.25Z" fill="white"/>
  <path d="M31.5 31.25C31.5 30.284 32.284 29.5 33.25 29.5H38.75C39.717 29.5 40.5 30.284 40.5 31.25V32.3C40.5 34.546 40.444 37.537 38.262 39.015C36.042 40.518 36 40.5 36 40.5C36 40.5 35.957 40.518 33.738 39.015C31.556 37.537 31.5 34.546 31.5 32.3V31.25ZM33.25 27C32.1228 27 31.0418 27.4478 30.2448 28.2448C29.4478 29.0418 29 30.1228 29 31.25V32.3C29 35.454 29.535 39.188 32.336 41.085C35.1 42.957 36 43 36 43C36 43 36.9 42.957 39.664 41.085C42.465 39.188 43 35.454 43 32.3V31.25C43 30.1228 42.5522 29.0418 41.7552 28.2448C40.9582 27.4478 39.8772 27 38.75 27H33.25Z" fill="#A8A8A8"/>
  <path d="M31.5 31.25C31.5 30.284 32.284 29.5 33.25 29.5H38.75C39.717 29.5 40.5 30.284 40.5 31.25V32.3C40.5 34.546 40.444 37.537 38.262 39.015C36.042 40.518 36 40.5 36 40.5C36 40.5 35.957 40.518 33.738 39.015C31.556 37.537 31.5 34.546 31.5 32.3V31.25Z" fill="white"/>
  <path d="M10.0004 40C10.0004 40 9.10797 37.5 8.99982 35C8.95124 33.8772 9.00054 31.5 9.00054 31.5" stroke="white" stroke-width="2.5" stroke-linecap="round"/>
</svg>
