<svg width="80" height="80" viewBox="0 0 80 80"version="1.1" xmlns="http://www.w3.org/2000/svg">
<path d="M47.917 11.6667H52.0837V8.75008C52.0837 8.19755 51.8642 7.66764 51.4735 7.27694C51.0828 6.88624 50.5529 6.66675 50.0003 6.66675C49.4478 6.66675 48.9179 6.88624 48.5272 7.27694C48.1365 7.66764 47.917 8.19755 47.917 8.75008V11.6667Z" fill="white"/>
<path d="M32.0837 11.6667V8.75008C32.0837 8.19755 31.8642 7.66764 31.4735 7.27694C31.0828 6.88624 30.5529 6.66675 30.0003 6.66675C29.4478 6.66675 28.9179 6.88624 28.5272 7.27694C28.1365 7.66764 27.917 8.19755 27.917 8.75008V11.6667H30.417H32.0837Z" fill="white"/>
<path d="M52.5 25.8334C52.5 26.9385 50.3943 26.3316 49.6129 27.113C48.8315 27.8944 49.4384 30.0001 48.3333 30.0001C47.2283 30.0001 47.8351 27.8944 47.0537 27.113C46.2723 26.3316 44.1667 26.9385 44.1667 25.8334C44.1667 24.7283 46.2723 25.3352 47.0537 24.5538C47.8351 23.7724 47.2283 21.6667 48.3333 21.6667C49.4384 21.6667 48.8315 23.7724 49.6129 24.5538C50.3943 25.3352 52.5 24.7283 52.5 25.8334ZM31.6667 30.0001C32.7717 30.0001 32.1649 27.8944 32.9463 27.113C33.7277 26.3316 35.8333 26.9385 35.8333 25.8334C35.8333 24.7283 33.7277 25.3352 32.9463 24.5538C32.1649 23.7724 32.7717 21.6667 31.6667 21.6667C30.5616 21.6667 31.1685 23.7724 30.3871 24.5538C29.6057 25.3352 27.5 24.7283 27.5 25.8334C27.5 26.9385 29.6057 26.3316 30.3871 27.113C31.1685 27.8944 30.5616 30.0001 31.6667 30.0001Z" fill="white"/>
<path d="M49.6129 27.113C50.3943 26.3316 52.5 26.9385 52.5 25.8334C52.5 24.7283 50.3943 25.3352 49.6129 24.5538C48.8315 23.7724 49.4384 21.6667 48.3333 21.6667C47.2283 21.6667 47.8351 23.7724 47.0537 24.5538C46.2723 25.3352 44.1667 24.7283 44.1667 25.8334C44.1667 26.9385 46.2723 26.3316 47.0537 27.113C47.8351 27.8944 47.2283 30.0001 48.3333 30.0001C49.4384 30.0001 48.8315 27.8944 49.6129 27.113Z" fill="white"/>
<path d="M32.9463 27.113C32.1649 27.8944 32.7717 30.0001 31.6667 30.0001C30.5616 30.0001 31.1685 27.8944 30.3871 27.113C29.6057 26.3316 27.5 26.9385 27.5 25.8334C27.5 24.7283 29.6057 25.3352 30.3871 24.5538C31.1685 23.7724 30.5616 21.6667 31.6667 21.6667C32.7717 21.6667 32.1649 23.7724 32.9463 24.5538C33.7277 25.3352 35.8333 24.7283 35.8333 25.8334C35.8333 26.9385 33.7277 26.3316 32.9463 27.113Z" fill="white"/>
<path d="M48.8428 13.8379C49.6506 13.4858 50.5669 13.4732 51.3838 13.8037L51.5566 13.8799L57.085 16.4961C58.2316 17.0386 58.9629 18.1934 58.9629 19.4619V34.9258C58.9629 36.1766 58.2523 37.3192 57.1299 37.8711L52.0977 40.3438C51.1706 40.7994 50.0828 40.7926 49.1621 40.3242L44.0674 37.7314C42.9672 37.1717 42.2737 36.042 42.2734 34.8076V34.585L41.4863 34.9854C40.5519 35.4604 39.4462 35.4604 38.5117 34.9854L37.7256 34.585V34.8066C37.7256 36.0411 37.0329 37.1716 35.9326 37.7314L30.8359 40.3242C29.9154 40.7924 28.8283 40.7993 27.9014 40.3438L22.8701 37.8711C21.7476 37.3193 21.0361 36.1766 21.0361 34.9258V19.4619C21.0361 18.1934 21.7674 17.0387 22.9141 16.4961L28.4424 13.8799L28.6162 13.8037C29.4329 13.4735 30.3487 13.486 31.1562 13.8379L31.3281 13.9189L39.999 18.3086L48.6719 13.918L48.8428 13.8379Z" stroke="white" stroke-width="4.59375"/>
<path d="M22.4997 53.7501C22.4997 52.1401 23.8063 50.8334 25.4163 50.8334H54.583C56.1947 50.8334 57.4997 52.1401 57.4997 53.7501V55.5001C57.4997 59.2434 57.4063 64.2284 53.7697 66.6917C50.0697 69.1967 47.7113 69.1667 39.9997 69.1667C32.288 69.1667 29.928 69.1967 26.2297 66.6917C22.593 64.2284 22.4997 59.2434 22.4997 55.5001V53.7501ZM25.4163 46.6667C23.5377 46.6667 21.736 47.413 20.4077 48.7414C19.0793 50.0698 18.333 51.8715 18.333 53.7501V55.5001C18.333 60.7567 19.2247 66.9801 23.893 70.1417C28.4997 73.2617 31.7663 73.3334 39.9997 73.3334C48.233 73.3334 51.4997 73.2617 56.1063 70.1417C60.7747 66.9801 61.6663 60.7567 61.6663 55.5001V53.7501C61.6663 51.8715 60.9201 50.0698 59.5917 48.7414C58.2633 47.413 56.4616 46.6667 54.583 46.6667H25.4163Z" fill="white"/>
<path d="M52.4997 52.0833C52.4997 50.4733 53.8063 49.1667 55.4163 49.1667H64.583C66.1947 49.1667 67.4997 50.4733 67.4997 52.0833V53.8333C67.4997 57.5767 67.4063 62.5617 63.7697 65.025C60.0697 67.53 59.9997 67.5 59.9997 67.5C59.9997 67.5 59.928 67.53 56.2297 65.025C52.593 62.5617 52.4997 57.5767 52.4997 53.8333V52.0833ZM55.4163 45C53.5377 45 51.7361 45.7463 50.4077 47.0747C49.0793 48.403 48.333 50.2047 48.333 52.0833V53.8333C48.333 59.09 49.2247 65.3133 53.893 68.475C58.4997 71.595 59.9997 71.6667 59.9997 71.6667C59.9997 71.6667 61.4997 71.595 66.1063 68.475C70.7747 65.3133 71.6663 59.09 71.6663 53.8333V52.0833C71.6663 50.2047 70.9201 48.403 69.5917 47.0747C68.2633 45.7463 66.4616 45 64.583 45H55.4163Z" fill="#A8A8A8"/>
<path d="M52.4997 52.0833C52.4997 50.4733 53.8063 49.1667 55.4163 49.1667H64.583C66.1947 49.1667 67.4997 50.4733 67.4997 52.0833V53.8333C67.4997 57.5767 67.4063 62.5617 63.7697 65.025C60.0697 67.53 59.9997 67.5 59.9997 67.5C59.9997 67.5 59.928 67.53 56.2297 65.025C52.593 62.5617 52.4997 57.5767 52.4997 53.8333V52.0833Z" fill="white"/>
<path d="M17.5013 70C17.5013 70 15.9394 65.625 15.7502 61.25C15.6652 59.2852 15.7514 55.125 15.7514 55.125" stroke="white" stroke-width="4.375" stroke-linecap="round"/>
</svg>
